# File created by Blade
# Date/Time:  Fri Jan 16 19:40:56 2015
#---------------------------------------------------------
:version 1.10
:name HOM
:units
  mass 1.0
  length 1.000000
  angle deg
:documentation
     Acclaim Skeleton File
:root
   axis xyz
   order TX TY TZ RX RY RZ
   position 0.000000 0.000000 0.000000
   orientation 0 0 0
:bonedata
   begin
      id 1
      name Spine_dum
      direction 0.000000 1.000000 0.000000
      length 7.067664
      axis 0.0 0.0 0.0 xyz
   end
   begin
      id 2
      name LeftUpLeg_dum
      direction 1.000000 0.000000 0.000000
      length 4.013002
      axis 0.0 0.0 0.0 xyz
   end
   begin
      id 3
      name RightUpLeg_dum
      direction -1.000000 0.000000 0.000000
      length 4.013002
      axis 0.0 0.0 0.0 xyz
   end
   begin
      id 4
      name Spine
      direction 0.000000 1.000000 0.000000
      length 0.000000
      axis 0.0 0.0 0.0 xyz
      dof rx ry rz
   end
   begin
      id 5
      name Spine_dum1
      direction 0.000000 1.000000 0.000000
      length 15.039886
      axis 0.0 0.0 0.0 xyz
   end
   begin
      id 6
      name Spine_dum2
      direction 0.000000 1.000000 0.000000
      length 10.530368
      axis 0.0 0.0 0.0 xyz
   end
   begin
      id 7
      name Spine_dum3
      direction 0.000000 1.000000 0.000000
      length 10.530368
      axis 0.0 0.0 0.0 xyz
   end
   begin
      id 8
      name Head
      direction 0.000000 1.000000 0.000000
      length 4.527550
      axis 0.0 0.0 0.0 xyz
      dof rx ry rz
   end
   begin
      id 9
      name LeftShoulder
      direction 1.000000 0.000000 0.000000
      length 7.028855
      axis 0.0 0.0 -90.0 xyz
      dof rx ry rz
   end
   begin
      id 10
      name LeftArm
      direction 1.000000 0.000000 0.000000
      length 10.797705
      axis 0.0 0.0 -90.0 xyz
      dof rx ry rz
   end
   begin
      id 11
      name LeftForeArm
      direction 1.000000 0.000000 0.000000
      length 7.907442
      axis 0.0 0.0 -90.0 xyz
      dof ry rz rx
   end
   begin
      id 12
      name LeftHand
      direction 0.000000 0.000000 0.000000
      length 0.000000
      axis 0.0 0.0 -90.0 xyz
      dof rx ry rz
   end
   begin
      id 13
      name LeftHand_dum1
      direction 0.000000 0.000000 0.000000
      length 0.000000
      axis 0.0 0.0 -90.0 xyz
   end
   begin
      id 14
      name LeftHand_dum2
      direction 1.000000 0.000000 0.000000
      length 3.937000
      axis 0.0 0.0 -90.0 xyz
   end
   begin
      id 15
      name LeftHandThumb1
      direction 0.000000 0.000000 1.000000
      length 3.937000
      axis 0.0 0.0 -90.0 xyz
      dof rx rz ry
   end
   begin
      id 16
      name RightShoulder
      direction -1.000000 0.000000 0.000000
      length 7.028855
      axis 0.0 0.0 90.0 xyz
      dof rx ry rz
   end
   begin
      id 17
      name RightArm
      direction -1.000000 0.000000 0.000000
      length 10.797705
      axis 0.0 0.0 90.0 xyz
      dof rx ry rz
   end
   begin
      id 18
      name RightForeArm
      direction -1.000000 0.000000 0.000000
      length 7.907442
      axis 0.0 0.0 90.0 xyz
      dof ry rz rx
   end
   begin
      id 19
      name RightHand
      direction 0.000000 0.000000 0.000000
      length 0.000000
      axis 0.0 0.0 90.0 xyz
      dof rx ry rz
   end
   begin
      id 20
      name RightHand_dum1
      direction 0.000000 0.000000 0.000000
      length 0.000000
      axis 0.0 0.0 90.0 xyz
   end
   begin
      id 21
      name RightHand_dum2
      direction -1.000000 0.000000 0.000000
      length 3.937000
      axis 0.0 0.0 90.0 xyz
   end
   begin
      id 22
      name RightHandThumb1
      direction 0.000000 0.000000 1.000000
      length 3.937000
      axis 0.0 0.0 90.0 xyz
      dof rx rz ry
   end
   begin
      id 23
      name LeftUpLeg
      direction 0.000000 -1.000000 0.000000
      length 16.899758
      axis 0.0 0.0 0.0 xyz
      dof rx ry rz
   end
   begin
      id 24
      name LeftLeg
      direction 0.000000 -1.000000 0.000000
      length 17.389183
      axis 0.0 0.0 0.0 xyz
      dof rx ry rz
   end
   begin
      id 25
      name LeftFoot
      direction 0.000000 -0.258819 0.965926
      length 4.924528
      axis 15.0 0.0 0.0 xyz
      dof rx ry rz
   end
   begin
      id 26
      name LeftToeBase
      direction 0.000000 0.000000 1.000000
      length 2.952750
      axis 0.0 0.0 0.0 xyz
      dof rx ry rz
   end
   begin
      id 27
      name RightUpLeg
      direction 0.000000 -1.000000 0.000000
      length 16.899758
      axis 0.0 0.0 0.0 xyz
      dof rx ry rz
   end
   begin
      id 28
      name RightLeg
      direction 0.000000 -1.000000 0.000000
      length 17.389183
      axis 0.0 0.0 0.0 xyz
      dof rx ry rz
   end
   begin
      id 29
      name RightFoot
      direction 0.000000 -0.258819 0.965926
      length 4.924528
      axis 15.0 0.0 0.0 xyz
      dof rx ry rz
   end
   begin
      id 30
      name RightToeBase
      direction 0.000000 0.000000 1.000000
      length 2.952750
      axis 0.0 0.0 0.0 xyz
      dof rx ry rz
   end
:hierarchy
   begin
      root Spine_dum LeftUpLeg_dum RightUpLeg_dum
      Spine_dum Spine
      LeftUpLeg_dum LeftUpLeg
      RightUpLeg_dum RightUpLeg
      Spine Spine_dum1 Spine_dum2 Spine_dum3
      Spine_dum1 Head
      Spine_dum2 LeftShoulder
      Spine_dum3 RightShoulder
      LeftShoulder LeftArm
      LeftArm LeftForeArm
      LeftForeArm LeftHand
      LeftHand LeftHand_dum1 LeftHand_dum2
      LeftHand_dum1 LeftHandThumb1
      RightShoulder RightArm
      RightArm RightForeArm
      RightForeArm RightHand
      RightHand RightHand_dum1 RightHand_dum2
      RightHand_dum1 RightHandThumb1
      LeftUpLeg LeftLeg
      LeftLeg LeftFoot
      LeftFoot LeftToeBase
      RightUpLeg RightLeg
      RightLeg RightFoot
      RightFoot RightToeBase
   end

# File created by Blade
# Date/Time:  Fri Jan 16 19:41:12 2015
# Frame Rate: 120.000 fps
#------------------------------------------------------
:FULLY-SPECIFIED
:DEGREES
164
root 18.557276 35.438500 -21.747304 7.461186 1.090063 -1.536567
Spine -19.190870 -5.129103 -0.236686
Head 10.895976 3.128698 4.702482
LeftShoulder -6.739913 -2.977541 6.057027
LeftArm -82.684943 51.765744 -138.196412
LeftForeArm 3.244776 0.000000 69.705723
LeftHand -1.941919 -0.000000 -33.445455
LeftHandThumb1 -26.253704 0.000000 33.147579
RightShoulder -13.282970 4.197484 -16.189066
RightArm 136.199297 81.661249 134.667887
RightForeArm 18.766672 -0.000000 94.678357
RightHand 1.567444 0.000000 -25.082736
RightHandThumb1 -24.326973 -0.000000 -32.862282
LeftUpLeg 2.293190 7.330061 2.008912
LeftLeg -6.283170 -0.000000 0.000000
LeftFoot -21.921548 27.736308 -13.708432
LeftToeBase 24.958684 -0.000000 -0.000000
RightUpLeg 0.935561 -9.026491 -0.875813
RightLeg -2.371093 -0.000000 0.000000
RightFoot -22.713542 -21.709978 18.744564
RightToeBase 23.907572 -0.000000 -0.000000
165
root 18.557840 35.440668 -21.747248 7.514296 1.016838 -1.557943
Spine -19.242820 -5.327381 -0.206212
Head 10.758463 3.470829 4.863448
LeftShoulder -6.711825 -2.884967 5.899468
LeftArm -82.397665 50.572434 -139.247877
LeftForeArm 0.070733 -0.000000 69.419043
LeftHand -2.059059 -0.000000 -34.034833
LeftHandThumb1 -26.253704 0.000000 33.147579
RightShoulder -13.177796 4.586151 -16.446467
RightArm 137.669907 81.039460 135.877083
RightForeArm 18.802771 -0.000000 96.632478
RightHand 1.867377 0.000000 -24.595691
RightHandThumb1 -24.326973 -0.000000 -32.862282
LeftUpLeg 2.260070 7.370415 2.016463
LeftLeg -6.297725 -0.000000 0.000000
LeftFoot -21.914805 27.744168 -13.731684
LeftToeBase 24.933883 -0.000000 -0.000000
RightUpLeg 0.851065 -9.029444 -0.850954
RightLeg -2.339779 -0.000000 0.000000
RightFoot -22.687536 -21.652423 18.764959
RightToeBase 23.900229 -0.000000 -0.000000
166
root 18.558837 35.442849 -21.746871 7.569605 0.926159 -1.589491
Spine -19.294223 -5.489290 -0.179556
Head 10.626635 3.807582 5.088390
LeftShoulder -6.705338 -2.533701 5.657660
LeftArm -82.054989 49.644476 -140.293030
LeftForeArm -2.544815 0.000000 69.278353
LeftHand -2.174854 -0.000000 -34.580287
LeftHandThumb1 -26.253704 0.000000 33.147579
RightShoulder -13.122658 4.999401 -16.735746
RightArm 138.590350 80.467436 136.565807
RightForeArm 18.674379 -0.000000 98.581442
RightHand 2.140016 -0.000000 -24.376354
RightHandThumb1 -24.326973 -0.000000 -32.862282
LeftUpLeg 2.228402 7.406950 2.029955
LeftLeg -6.312421 -0.000000 0.000000
LeftFoot -21.928166 27.793359 -13.765246
LeftToeBase 24.882747 -0.000000 -0.000000
RightUpLeg 0.764091 -9.026683 -0.821341
RightLeg -2.306898 -0.000000 0.000000
RightFoot -22.653068 -21.571722 18.788700
RightToeBase 23.888649 -0.000000 -0.000000
167
root 18.556783 35.445380 -21.749873 7.664147 0.842317 -1.615254
Spine -19.391023 -5.651322 -0.156894
Head 10.509886 4.118286 5.281069
LeftShoulder -6.763385 -2.362319 5.428327
LeftArm -81.910130 48.647111 -141.425250
LeftForeArm -4.663974 -0.000000 69.222461
LeftHand -2.361041 -0.000000 -35.179335
LeftHandThumb1 -26.253704 0.000000 33.147579
RightShoulder -13.118719 5.312291 -17.013191
RightArm 139.736544 79.713348 137.489066
RightForeArm 18.375185 -0.000000 100.482674
RightHand 2.581230 -0.000000 -23.843099
RightHandThumb1 -24.326973 -0.000000 -32.862282
LeftUpLeg 2.147156 7.422599 2.040156
LeftLeg -6.317947 -0.000000 0.000000
LeftFoot -21.948798 27.829097 -13.824796
LeftToeBase 24.897492 -0.000000 -0.000000
RightUpLeg 0.631125 -9.022733 -0.781644
RightLeg -2.275686 -0.000000 0.000000
RightFoot -22.618639 -21.509802 18.806522
RightToeBase 23.857777 -0.000000 -0.000000
168
root 18.558030 35.446935 -21.747544 7.720282 0.699646 -1.646562
Spine -19.455520 -5.723555 -0.143132
Head 10.430050 4.380094 5.484717
LeftShoulder -6.832315 -1.954595 5.122718
LeftArm -81.645473 47.905390 -142.484477
LeftForeArm -6.279532 -0.000000 69.296680
LeftHand -2.566872 -0.000000 -35.538353
LeftHandThumb1 -26.253704 0.000000 33.147579
RightShoulder -13.127267 5.596670 -17.279608
RightArm 141.030776 78.920338 138.519979
RightForeArm 18.008630 -0.000000 102.338493
RightHand 2.931096 0.000000 -23.238037
RightHandThumb1 -24.326973 -0.000000 -32.862282
LeftUpLeg 2.143804 7.509032 2.046336
LeftLeg -6.369604 -0.000000 0.000000
LeftFoot -21.949935 27.879868 -13.873040
LeftToeBase 24.817434 -0.000000 -0.000000
RightUpLeg 0.543216 -8.985366 -0.758176
RightLeg -2.253098 -0.000000 0.000000
RightFoot -22.580913 -21.420618 18.816500
RightToeBase 23.877665 -0.000000 -0.000000
169
root 18.554058 35.448939 -21.750289 7.784358 0.658419 -1.652190
Spine -19.508185 -5.901938 -0.187681
Head 10.337928 4.633305 5.770639
LeftShoulder -6.965431 -1.579529 4.881902
LeftArm -81.472835 47.274153 -143.678145
LeftForeArm -6.887354 0.000000 69.525123
LeftHand -2.611107 -0.000000 -35.794754
LeftHandThumb1 -26.253704 0.000000 33.147579
RightShoulder -12.997027 6.124402 -17.528474
RightArm 142.741135 78.424827 139.923652
RightForeArm 18.007036 -0.000000 104.175396
RightHand 3.511713 -0.000000 -22.452525
RightHandThumb1 -24.326973 -0.000000 -32.862282
LeftUpLeg 2.076086 7.477888 2.045943
LeftLeg -6.354509 -0.000000 0.000000
LeftFoot -21.969722 27.931465 -13.909970
LeftToeBase 24.831295 -0.000000 -0.000000
RightUpLeg 0.461225 -9.064240 -0.737197
RightLeg -2.245791 -0.000000 0.000000
RightFoot -22.530300 -21.323027 18.785842
RightToeBase 23.874509 -0.000000 -0.000000
170
root 18.553231 35.450474 -21.747828 7.834304 0.520846 -1.687768
Spine -19.582344 -5.918515 -0.188618
Head 10.321054 4.823834 5.949036
LeftShoulder -7.049246 -1.124042 4.549016
LeftArm -81.391738 46.787208 -144.921073
LeftForeArm -7.042871 -0.000000 70.094144
LeftHand -2.410571 -0.000000 -35.826186
LeftHandThumb1 -26.253704 0.000000 33.147579
RightShoulder -13.078271 6.233324 -17.759402
RightArm 144.268598 77.480950 141.111882
RightForeArm 17.352356 -0.000000 105.982521
RightHand 3.790259 -0.000000 -22.086870
RightHandThumb1 -24.326973 -0.000000 -32.862282
LeftUpLeg 2.075662 7.551804 2.061940
LeftLeg -6.398883 -0.000000 0.000000
LeftFoot -21.990462 27.970662 -13.976318
LeftToeBase 24.799954 -0.000000 -0.000000
RightUpLeg 0.394557 -9.014037 -0.705549
RightLeg -2.251382 -0.000000 0.000000
RightFoot -22.490128 -21.267026 18.796427
RightToeBase 23.919068 -0.000000 -0.000000
171
root 18.556368 35.451196 -21.745024 7.861354 0.375635 -1.709379
Spine -19.627347 -5.876236 -0.228468
Head 10.320753 4.975198 6.154480
LeftShoulder -7.076063 -0.867585 4.247513
LeftArm -81.535764 46.206686 -146.392178
LeftForeArm -6.687487 0.000000 70.980408
LeftHand -2.101576 -0.000000 -36.003787
LeftHandThumb1 -26.253704 0.000000 33.147579
RightShoulder -13.102984 6.367341 -18.022771
RightArm 146.189941 76.608151 142.723262
RightForeArm 17.057321 0.000000 107.827029
RightHand 4.119761 -0.000000 -21.426190
RightHandThumb1 -24.326973 -0.000000 -32.862282
LeftUpLeg 2.102723 7.636573 2.057362
LeftLeg -6.450229 -0.000000 0.000000
LeftFoot -21.996597 28.021546 -14.027411
LeftToeBase 24.745588 -0.000000 -0.000000
RightUpLeg 0.351751 -8.937177 -0.702929
RightLeg -2.250594 -0.000000 0.000000
RightFoot -22.439407 -21.194400 18.797653
RightToeBase 23.911349 -0.000000 -0.000000
172
root 18.556626 35.451549 -21.739601 7.891394 0.253178 -1.742508
Spine -19.688115 -5.779906 -0.288948
Head 10.335472 5.013992 6.375533
LeftShoulder -7.042324 -0.570228 3.974229
LeftArm -81.740955 45.732528 -148.007337
LeftForeArm -5.984174 -0.000000 71.935437
LeftHand -1.531180 -0.000000 -36.482880
LeftHandThumb1 -26.253704 0.000000 33.147579
RightShoulder -13.125072 6.756599 -18.358929
RightArm 147.877705 75.918132 144.101108
RightForeArm 17.003019 -0.000000 109.560885
RightHand 4.997361 -0.000000 -20.290561
RightHandThumb1 -24.326973 -0.000000 -32.862282
LeftUpLeg 2.129172 7.707585 2.073718
LeftLeg -6.504628 -0.000000 0.000000
LeftFoot -21.999934 28.072456 -14.045911
LeftToeBase 24.731112 -0.000000 -0.000000
RightUpLeg 0.327523 -8.886532 -0.681691
RightLeg -2.278011 -0.000000 0.000000
RightFoot -22.384161 -21.124836 18.817915
RightToeBase 23.875204 -0.000000 -0.000000
173
root 18.552967 35.452059 -21.739562 7.948106 0.185787 -1.767420
Spine -19.761088 -5.713608 -0.356919
Head 10.338758 5.088031 6.616324
LeftShoulder -6.969994 -0.361310 3.660793
LeftArm -81.977966 45.242001 -149.420938
LeftForeArm -5.508482 0.000000 73.235725
LeftHand -1.660000 -0.000000 -36.446855
LeftHandThumb1 -26.253704 0.000000 33.147579
RightShoulder -13.194413 7.525309 -18.831834
RightArm 148.451667 75.551780 144.429187
RightForeArm 16.932729 -0.000000 111.330866
RightHand 5.617987 0.000000 -19.508052
RightHandThumb1 -24.326973 -0.000000 -32.862282
LeftUpLeg 2.092837 7.710861 2.091034
LeftLeg -6.518066 -0.000000 0.000000
LeftFoot -22.020180 28.123160 -14.070514
LeftToeBase 24.743752 -0.000000 -0.000000
RightUpLeg 0.279900 -8.849077 -0.648992
RightLeg -2.316771 -0.000000 0.000000
RightFoot -22.357125 -21.106005 18.830004
RightToeBase 23.908967 -0.000000 -0.000000
174
root 18.555028 35.452430 -21.732609 7.972525 0.128107 -1.782395
Spine -19.834854 -5.646713 -0.409462
Head 10.423351 5.163267 6.747853
LeftShoulder -6.866427 -0.226622 3.376613
LeftArm -82.251548 44.729146 -150.697196
LeftForeArm -5.270768 -0.000000 74.433505
LeftHand -2.610850 -0.000000 -36.482816
LeftHandThumb1 -26.253704 0.000000 33.147579
RightShoulder -13.219710 7.920618 -19.229348
RightArm 150.002184 74.847706 145.641585
RightForeArm 16.950339 -0.000000 113.093202
RightHand 6.178064 -0.000000 -18.773869
RightHandThumb1 -24.326973 -0.000000 -32.862282
LeftUpLeg 2.110022 7.734372 2.093286
LeftLeg -6.559710 -0.000000 0.000000
LeftFoot -22.017101 28.158940 -14.087510
LeftToeBase 24.720264 -0.000000 -0.000000
RightUpLeg 0.287589 -8.857914 -0.647344
RightLeg -2.369280 -0.000000 0.000000
RightFoot -22.318405 -20.989805 18.892634
RightToeBase 23.933513 -0.000000 -0.000000
175
root 18.555226 35.454969 -21.723655 8.070961 0.071445 -1.768849
Spine -20.034051 -5.528508 -0.533429
Head 10.556771 5.122808 6.901494
LeftShoulder -6.751023 -0.052854 3.136927
LeftArm -82.641151 44.257938 -152.270851
LeftForeArm -5.252251 -0.000000 75.654950
LeftHand -2.752298 -0.000000 -36.423777
LeftHandThumb1 -26.253704 0.000000 33.147579
RightShoulder -13.259866 8.117736 -19.535382
RightArm 151.774629 74.045027 146.949065
RightForeArm 17.107525 0.000000 114.822708
RightHand 6.394646 -0.000000 -18.387063
RightHandThumb1 -24.326973 -0.000000 -32.862282
LeftUpLeg 2.059405 7.749406 2.059881
LeftLeg -6.610026 -0.000000 0.000000
LeftFoot -22.002078 28.186471 -14.174288
LeftToeBase 24.704768 -0.000000 -0.000000
RightUpLeg 0.233212 -8.823216 -0.656226
RightLeg -2.440747 -0.000000 0.000000
RightFoot -22.272496 -20.968757 18.945040
RightToeBase 23.891888 -0.000000 -0.000000
176
root 18.556263 35.455677 -21.717064 8.093687 0.083087 -1.766402
Spine -20.121499 -5.461078 -0.622809
Head 10.678865 5.106049 7.004397
LeftShoulder -6.587764 0.157461 2.915065
LeftArm -82.944036 43.943820 -153.796121
LeftForeArm -5.299772 -0.000000 76.929013
LeftHand -2.646732 -0.000000 -36.584552
LeftHandThumb1 -26.253704 0.000000 33.147579
RightShoulder -13.345766 8.642049 -19.983744
RightArm 152.596807 73.474750 147.396017
RightForeArm 17.177020 -0.000000 116.572533
RightHand 6.563271 -0.000000 -18.215379
RightHandThumb1 -24.326973 -0.000000 -32.862282
LeftUpLeg 2.061414 7.695712 2.056191
LeftLeg -6.638607 -0.000000 0.000000
LeftFoot -21.998149 28.215709 -14.218997
LeftToeBase 24.619375 -0.000000 -0.000000
RightUpLeg 0.259224 -8.849528 -0.659401
RightLeg -2.506844 -0.000000 0.000000
RightFoot -22.245086 -20.928717 18.990017
RightToeBase 23.875026 -0.000000 -0.000000
